<?xml version="1.0" encoding="UTF-8" standalone="no"?>
<!-- Created with Inkscape (http://www.inkscape.org/) -->

<svg
   version="1.1"
   id="svg699"
   width="2048"
   height="2048"
   viewBox="0 0 2048 2048"
   xmlns="http://www.w3.org/2000/svg"
   xmlns:svg="http://www.w3.org/2000/svg">
  <defs
     id="defs703" />
  <g
     id="g705">
    <path
       style="fill:#759f38;stroke-width:1.53824"
       d="M 80.628279,1933.0395 C 66.086865,1922.7568 42.276769,1910.7101 23.157325,1903.962 L 7.2979755,1898.3646 25.35385,1883.8979 c 88.91936,-71.2437 203.52672,-203.2597 300.39574,-346.0254 9.4718,-13.9596 17.89319,-25.6163 18.7142,-25.9039 4.6428,-1.626 -30.86204,82.1019 -61.53731,145.1177 -51.98876,106.8001 -101.61296,186.7474 -152.85242,246.254 -13.91959,16.1654 -35.699943,37.7232 -37.790674,37.4048 -0.531545,-0.082 -5.776339,-3.5485 -11.655107,-7.7056 z M 566.63423,1633.7464 c -53.27231,-1.2031 -122.57532,-6.6368 -185.35836,-14.5336 -20.72784,-2.6073 -40.9894,-5.1056 -45.0257,-5.5522 -4.0363,-0.4466 -7.63158,-1.2856 -7.9895,-1.8647 -1.31387,-2.1258 62.62482,-61.4607 93.77866,-87.0265 141.97328,-116.5062 290.06401,-178.6139 464.54957,-194.8272 27.53518,-2.5586 112.81191,-2.5584 142.2876,3e-4 85.8501,7.4523 166.6925,22.9057 246.6962,47.1574 41.2307,12.4982 8.8575,-0.2765 -46.117,-18.1984 -83.1735,-27.1147 -171.0251,-45.9028 -260.57072,-55.726 -30.35019,-3.3295 -124.35737,-4.729 -154.78181,-2.3043 -97.73856,7.7893 -178.52956,28.2824 -263.05952,66.7265 -44.19805,20.1011 -102.4452,54.3501 -145.70147,85.6713 -3.75833,2.7213 7.65721,-19.3724 30.59935,-59.2224 45.41573,-78.886 90.32477,-146.9496 144.89021,-219.5936 l 15.89408,-21.1599 28.79416,-19.0757 C 797.00001,1020.615 992.2541,966.56517 1189.8369,978.00401 c 55.9335,3.23826 107.5329,10.31387 178.9914,24.54449 64.8155,12.9077 87.7292,15.6803 136.7922,16.552 42.9399,0.763 65.0251,-0.5812 96.5466,-5.8765 18.3506,-3.0827 48.7495,-10.5835 47.5903,-11.7428 -0.3455,-0.3456 -4.8802,0.4735 -10.0772,1.8201 -21.2098,5.496 -50.6985,8.443 -84.7338,8.4677 -48.6402,0.035 -87.588,-5.1597 -157.6605,-21.02978 -150.8725,-34.16955 -219.7624,-43.57401 -318.9235,-43.53714 -81.34129,0.0302 -148.90971,8.02871 -221.89675,26.2676 -48.60835,12.14689 -125.55466,38.67592 -154.02966,53.10532 -3.99088,2.0224 -7.67522,3.677 -8.18744,3.677 -2.77523,0 62.35313,-70.73259 104.58734,-113.58686 C 898.6655,815.36976 999.62401,731.2663 1110.4033,657.11385 l 37.687,-25.22654 15.3825,-2.26963 c 52.0712,-7.68284 99.2012,-10.76792 146.1332,-9.56567 64.9314,1.66331 115.5639,8.03218 209.9703,26.41146 19.0357,3.70593 42.5709,7.81999 52.3003,9.14234 48.8122,6.63426 98.6671,5.86608 141.5183,-2.18053 12.6289,-2.37147 40.7038,-10.54615 48.1076,-14.00769 3.5752,-1.67145 5.1157,-2.62545 3.4236,-2.11997 -29.649,8.85733 -53.2048,12.02934 -89.2182,12.0141 -48.2002,-0.0204 -80.5034,-4.74759 -186.1274,-27.23742 -125.7456,-26.77426 -190.1665,-32.95436 -268.4235,-25.75087 -7.1913,0.66196 -13.297,1.03154 -13.5684,0.82133 -0.8926,-0.69162 29.8003,-17.35731 99.7101,-54.14087 41.051,-21.59935 120.0035,-58.39043 227.6599,-106.08741 104.9185,-46.48389 139.3846,-63.02379 183.0511,-87.84391 17.6839,-10.05159 42.4995,-25.78699 43.6907,-27.70392 0.3473,-0.55886 -10.2064,4.3421 -23.4525,10.891 -37.4781,18.5293 -90.2591,40.15741 -184.8302,75.73783 -165.0653,62.10247 -220.0221,84.13036 -287.5424,115.25324 -13.8996,6.40687 -25.5054,11.41543 -25.7906,11.13015 -1.0092,-1.00928 13.6111,-47.80178 22.6868,-72.60875 34.8175,-95.1693 79.0046,-172.23211 130.0142,-226.74602 14.4649,-15.45868 9.241,-11.85867 -13.4389,9.26149 -45.3526,42.23311 -85.7498,99.6658 -124.2453,176.63937 -20.059,40.10893 -39.0333,84.30005 -53.0314,123.50939 l -4.2149,11.80618 -36.4118,19.72782 C 1061.304,630.22559 974.13554,688.03491 883.12785,760.54678 l -4.99929,3.98339 v -16.2264 c 0,-50.4628 9.45635,-131.13995 23.0795,-196.90194 18.73094,-90.41867 53.14223,-186.14204 88.86574,-247.20084 l 2.24975,-3.84562 -2.94429,3.54511 c -8.98997,10.82369 -50.0335,89.06178 -65.65698,125.15669 -48.38886,111.79305 -77.44976,218.30422 -93.31259,342.0007 l -4.53706,35.37971 -8.10913,7.69118 c -4.46002,4.23011 -20.21776,18.86335 -35.01722,32.51824 -33.74926,31.1391 -103.05666,101.18921 -132.19545,133.61212 -43.78535,48.72008 -101.94129,118.09328 -133.1404,158.82068 -5.92224,7.7311 -11.21148,14.0957 -11.75384,14.1439 -3.61173,0.3213 -16.88629,-98.9343 -21.58956,-161.42789 -2.57852,-34.26147 -2.59892,-151.43208 -0.0325,-186.89656 6.73541,-93.07477 22.59002,-188.1913 44.08369,-264.47115 2.99407,-10.62586 5.39223,-19.84227 5.32922,-20.48093 -0.23142,-2.34579 -14.00046,41.34826 -23.62858,74.98186 -40.58242,141.76527 -62.81159,278.6168 -70.08605,431.47747 -1.95524,41.0862 -1.94088,136.7732 0.0265,177.3122 l 1.51325,31.1791 -16.68833,24.9667 c -59.34351,88.7818 -113.76895,185.0121 -154.84185,273.7778 -5.77417,12.4789 -11.02477,22.6891 -11.66802,22.6891 -1.61437,0 -22.19485,-39.4318 -33.71961,-64.6062 -48.44846,-105.8295 -76.51177,-211.4623 -87.0452,-327.6461 -3.14811,-34.7234 -3.56892,-114.0971 -0.79513,-149.9786 14.62985,-189.2504 75.95448,-350.00499 184.55134,-483.7777 18.20643,-22.42721 75.67133,-79.43766 97.89695,-97.12273 57.59086,-45.82543 112.78765,-78.88423 179.9745,-107.79136 23.60816,-10.15742 40.03601,-16.43279 89.98725,-34.37477 15.65163,-5.62189 61.33748,-23.03244 101.52408,-38.69008 40.18661,-15.65765 84.83413,-32.80443 99.2167,-38.10397 127.69576,-47.05194 233.29326,-70.96919 343.79756,-77.86821 37.1949,-2.32214 144.4494,-0.9142 183.8201,2.41304 16.0747,1.35846 63.4911,6.25055 105.3696,10.87129 126.7778,13.98814 172.6784,17.05247 233.8132,15.60931 57.9962,-1.36907 91.8362,-5.63704 136.1345,-17.16953 54.3383,-14.1462 105.283,-39.07241 143.4173,-70.170952 10.4456,-8.518291 14.264,-10.641784 14.2444,-7.921456 0,0.634529 -8.1941,17.42061 -18.1988,37.302418 -24.7817,49.24713 -37.303,80.05327 -51.1197,125.77107 -19.3313,63.96406 -29.5489,113.45974 -55.1697,267.25018 -14.4421,86.68987 -18.1023,106.98354 -26.304,145.84016 -33.7061,159.68778 -92.5452,303.52859 -176.0307,430.33209 -47.782,72.5743 -95.7622,130.6997 -158.6377,192.1805 -139.8265,136.7252 -323.9936,243.9961 -521.7469,303.8998 -149.42326,45.2632 -303.67505,65.0674 -476.42031,61.1668 z"
       id="path832" />
  </g>
</svg>
